<?xml version="1.0" encoding="UTF-8" standalone="no"?>
<svg
    xmlns:inkscape="http://www.inkscape.org/namespaces/inkscape"
    xmlns:sodipodi="http://sodipodi.sourceforge.net/DTD/sodipodi-0.dtd"
    xmlns:rdf="http://www.w3.org/1999/02/22-rdf-syntax-ns#"
    xmlns:cc="http://creativecommons.org/ns#"
    xmlns:dc="http://purl.org/dc/elements/1.1/"
    height="32px"
    shape-rendering="crispEdges"
    version="1.1"
    viewBox="0 0 32 32"
    width="32px"
    id="svg10889"
    sodipodi:docname="axe.svg"
    inkscape:version="1.2.2 (732a01da63, 2022-12-09)"
    xmlns="http://www.w3.org/2000/svg">
    <metadata
        id="metadata10893">
        <rdf:RDF>
            <cc:Work
                rdf:about="">
                <dc:format>image/svg+xml</dc:format>
                <dc:type
                    rdf:resource="http://purl.org/dc/dcmitype/StillImage"/>
                <dc:title/>
            </cc:Work>
        </rdf:RDF>
    </metadata>
    <sodipodi:namedview
        pagecolor="#ffffff"
        bordercolor="#666666"
        borderopacity="1"
        objecttolerance="10"
        gridtolerance="10"
        guidetolerance="10"
        inkscape:pageopacity="0"
        inkscape:pageshadow="2"
        inkscape:window-width="1920"
        inkscape:window-height="1009"
        id="namedview10891"
        showgrid="false"
        inkscape:zoom="29.5"
        inkscape:cx="27.728814"
        inkscape:cy="13.457627"
        inkscape:window-x="-8"
        inkscape:window-y="-8"
        inkscape:window-maximized="1"
        inkscape:current-layer="svg10889"
        inkscape:showpageshadow="2"
        inkscape:pagecheckerboard="0"
        inkscape:deskcolor="#d1d1d1"/>
    <defs
        id="defs8839"/>
    <rect
        fill="rgb(46,46,45)"
        height="1"
        width="1"
        x="17"
        y="4"
        id="rect9131"/>
    <rect
        fill="rgb(45,46,45)"
        height="1"
        width="1"
        x="18"
        y="4"
        id="rect9133"/>
    <rect
        fill="rgb(45,46,45)"
        height="1"
        width="1"
        x="16"
        y="5"
        id="rect9193"/>
    <rect
        fill="rgb(197,197,200)"
        height="1"
        width="1"
        x="17"
        y="5"
        id="rect9195"/>
    <rect
        fill="rgb(201,202,204)"
        height="1"
        width="1"
        x="18"
        y="5"
        id="rect9197"/>
    <rect
        fill="rgb(1,1,2)"
        height="1"
        width="1"
        x="19"
        y="5"
        id="rect9199"/>
    <rect
        fill="rgb(47,46,45)"
        height="1"
        width="1"
        x="20"
        y="5"
        id="rect9201"/>
    <rect
        fill="rgb(48,47,46)"
        height="1"
        width="1"
        x="15"
        y="6"
        id="rect9255"/>
    <rect
        fill="rgb(189,190,191)"
        height="1"
        width="1"
        x="16"
        y="6"
        id="rect9257"/>
    <rect
        fill="rgb(151,151,153)"
        height="1"
        width="1"
        x="17"
        y="6"
        id="rect9259"/>
    <rect
        fill="rgb(152,152,153)"
        height="1"
        width="1"
        x="18"
        y="6"
        id="rect9261"/>
    <rect
        fill="rgb(7,6,4)"
        height="1"
        width="1"
        x="19"
        y="6"
        id="rect9263"/>
    <rect
        fill="rgb(48,45,46)"
        height="1"
        width="1"
        x="20"
        y="6"
        id="rect9265"/>
    <rect
        fill="rgb(45,45,45)"
        height="1"
        width="1"
        x="14"
        y="7"
        id="rect9317"/>
    <rect
        fill="rgb(191,191,194)"
        height="1"
        width="1"
        x="15"
        y="7"
        id="rect9319"/>
    <rect
        fill="rgb(150,150,151)"
        height="1"
        width="1"
        x="16"
        y="7"
        id="rect9321"/>
    <rect
        fill="rgb(151,152,153)"
        height="1"
        width="1"
        x="17"
        y="7"
        id="rect9323"/>
    <rect
        fill="rgb(151,152,153)"
        height="1"
        width="1"
        x="18"
        y="7"
        id="rect9325"/>
    <rect
        fill="rgb(6,3,4)"
        height="1"
        width="1"
        x="19"
        y="7"
        id="rect9327"/>
    <rect
        fill="rgb(44,43,44)"
        height="1"
        width="1"
        x="20"
        y="7"
        id="rect9329"/>
    <rect
        fill="rgb(57,38,20)"
        height="1"
        width="1"
        x="21"
        y="7"
        id="rect9331"/>
    <rect
        fill="rgb(60,42,22)"
        height="1"
        width="1"
        x="22"
        y="7"
        id="rect9333"/>
    <rect
        fill="rgb(28,29,30)"
        height="1"
        width="1"
        x="12"
        y="8"
        id="rect9377"/>
    <rect
        fill="rgb(47,46,46)"
        height="1"
        width="1"
        x="13"
        y="8"
        id="rect9379"/>
    <rect
        fill="rgb(196,196,199)"
        height="1"
        width="1"
        x="14"
        y="8"
        id="rect9381"/>
    <rect
        fill="rgb(148,148,150)"
        height="1"
        width="1"
        x="15"
        y="8"
        id="rect9383"/>
    <rect
        fill="rgb(151,151,153)"
        height="1"
        width="1"
        x="16"
        y="8"
        id="rect9385"/>
    <rect
        fill="rgb(150,150,152)"
        height="1"
        width="1"
        x="17"
        y="8"
        id="rect9387"/>
    <rect
        fill="rgb(151,151,152)"
        height="1"
        width="1"
        x="18"
        y="8"
        id="rect9389"/>
    <rect
        fill="rgb(6,7,5)"
        height="1"
        width="1"
        x="19"
        y="8"
        id="rect9391"/>
    <rect
        fill="rgb(45,45,45)"
        height="1"
        width="1"
        x="20"
        y="8"
        id="rect9393"/>
    <rect
        fill="rgb(134,89,46)"
        height="1"
        width="1"
        x="21"
        y="8"
        id="rect9395"/>
    <rect
        fill="rgb(64,42,22)"
        height="1"
        width="1"
        x="22"
        y="8"
        id="rect9397"/>
    <rect
        fill="rgb(27,25,25)"
        height="1"
        width="1"
        x="12"
        y="9"
        id="rect9441"/>
    <rect
        fill="rgb(46,45,45)"
        height="1"
        width="1"
        x="13"
        y="9"
        id="rect9443"/>
    <rect
        fill="rgb(195,196,197)"
        height="1"
        width="1"
        x="14"
        y="9"
        id="rect9445"/>
    <rect
        fill="rgb(151,150,153)"
        height="1"
        width="1"
        x="15"
        y="9"
        id="rect9447"/>
    <rect
        fill="rgb(152,151,151)"
        height="1"
        width="1"
        x="16"
        y="9"
        id="rect9449"/>
    <rect
        fill="rgb(151,150,152)"
        height="1"
        width="1"
        x="17"
        y="9"
        id="rect9451"/>
    <rect
        fill="rgb(150,150,151)"
        height="1"
        width="1"
        x="18"
        y="9"
        id="rect9453"/>
    <rect
        fill="rgb(16,16,15)"
        height="1"
        width="1"
        x="19"
        y="9"
        id="rect9455"/>
    <rect
        fill="rgb(54,55,53)"
        height="1"
        width="1"
        x="20"
        y="9"
        id="rect9457"/>
    <rect
        fill="rgb(128,87,44)"
        height="1"
        width="1"
        x="21"
        y="9"
        id="rect9459"/>
    <rect
        fill="rgb(64,45,21)"
        height="1"
        width="1"
        x="22"
        y="9"
        id="rect9461"/>
    <rect
        fill="rgb(29,29,28)"
        height="1"
        width="1"
        x="12"
        y="10"
        id="rect9505"/>
    <rect
        fill="rgb(47,46,45)"
        height="1"
        width="1"
        x="13"
        y="10"
        id="rect9507"/>
    <rect
        fill="rgb(183,185,186)"
        height="1"
        width="1"
        x="14"
        y="10"
        id="rect9509"/>
    <rect
        fill="rgb(150,151,151)"
        height="1"
        width="1"
        x="15"
        y="10"
        id="rect9511"/>
    <rect
        fill="rgb(151,151,151)"
        height="1"
        width="1"
        x="16"
        y="10"
        id="rect9513"/>
    <rect
        fill="rgb(151,150,152)"
        height="1"
        width="1"
        x="17"
        y="10"
        id="rect9515"/>
    <rect
        fill="rgb(126,124,125)"
        height="1"
        width="1"
        x="18"
        y="10"
        id="rect9517"/>
    <rect
        fill="rgb(163,161,164)"
        height="1"
        width="1"
        x="19"
        y="10"
        id="rect9519"/>
    <rect
        fill="rgb(154,152,155)"
        height="1"
        width="1"
        x="20"
        y="10"
        id="rect9521"/>
    <rect
        fill="rgb(44,44,43)"
        height="1"
        width="1"
        x="21"
        y="10"
        id="rect9523"/>
    <rect
        fill="rgb(37,36,36)"
        height="1"
        width="1"
        x="22"
        y="10"
        id="rect9525"/>
    <rect
        fill="rgb(24,22,21)"
        height="1"
        width="1"
        x="12"
        y="11"
        id="rect9569"/>
    <rect
        fill="rgb(46,45,43)"
        height="1"
        width="1"
        x="13"
        y="11"
        id="rect9571"/>
    <rect
        fill="rgb(181,182,184)"
        height="1"
        width="1"
        x="14"
        y="11"
        id="rect9573"/>
    <rect
        fill="rgb(151,149,152)"
        height="1"
        width="1"
        x="15"
        y="11"
        id="rect9575"/>
    <rect
        fill="rgb(149,149,151)"
        height="1"
        width="1"
        x="16"
        y="11"
        id="rect9577"/>
    <rect
        fill="rgb(124,124,124)"
        height="1"
        width="1"
        x="17"
        y="11"
        id="rect9579"/>
    <rect
        fill="rgb(124,124,124)"
        height="1"
        width="1"
        x="18"
        y="11"
        id="rect9581"/>
    <rect
        fill="rgb(128,127,127)"
        height="1"
        width="1"
        x="19"
        y="11"
        id="rect9583"/>
    <rect
        fill="rgb(126,125,127)"
        height="1"
        width="1"
        x="20"
        y="11"
        id="rect9585"/>
    <rect
        fill="rgb(151,150,150)"
        height="1"
        width="1"
        x="21"
        y="11"
        id="rect9587"/>
    <rect
        fill="rgb(152,151,154)"
        height="1"
        width="1"
        x="22"
        y="11"
        id="rect9589"/>
    <rect
        fill="rgb(45,45,44)"
        height="1"
        width="1"
        x="23"
        y="11"
        id="rect9591"/>
    <rect
        fill="rgb(42,42,41)"
        height="1"
        width="1"
        x="24"
        y="11"
        id="rect9593"/>
    <rect
        fill="rgb(48,46,46)"
        height="1"
        width="1"
        x="14"
        y="12"
        id="rect9637"/>
    <rect
        fill="rgb(47,46,46)"
        height="1"
        width="1"
        x="15"
        y="12"
        id="rect9639"/>
    <rect
        fill="rgb(46,44,44)"
        height="1"
        width="1"
        x="16"
        y="12"
        id="rect9641"/>
    <rect
        fill="rgb(48,46,46)"
        height="1"
        width="1"
        x="17"
        y="12"
        id="rect9643"/>
    <rect
        fill="rgb(125,125,124)"
        height="1"
        width="1"
        x="18"
        y="12"
        id="rect9645"/>
    <rect
        fill="rgb(148,147,148)"
        height="1"
        width="1"
        x="19"
        y="12"
        id="rect9647"/>
    <rect
        fill="rgb(153,152,153)"
        height="1"
        width="1"
        x="20"
        y="12"
        id="rect9649"/>
    <rect
        fill="rgb(153,150,153)"
        height="1"
        width="1"
        x="21"
        y="12"
        id="rect9651"/>
    <rect
        fill="rgb(152,151,153)"
        height="1"
        width="1"
        x="22"
        y="12"
        id="rect9653"/>
    <rect
        fill="rgb(151,150,152)"
        height="1"
        width="1"
        x="23"
        y="12"
        id="rect9655"/>
    <rect
        fill="rgb(46,46,44)"
        height="1"
        width="1"
        x="24"
        y="12"
        id="rect9657"/>
    <rect
        fill="rgb(56,37,17)"
        height="1"
        width="1"
        x="15"
        y="13"
        id="rect9703"/>
    <rect
        fill="rgb(126,82,41)"
        height="1"
        width="1"
        x="16"
        y="13"
        id="rect9705"/>
    <rect
        fill="rgb(53,36,17)"
        height="1"
        width="1"
        x="17"
        y="13"
        id="rect9707"/>
    <rect
        fill="rgb(41,40,40)"
        height="1"
        width="1"
        x="18"
        y="13"
        id="rect9709"/>
    <rect
        fill="rgb(198,197,199)"
        height="1"
        width="1"
        x="19"
        y="13"
        id="rect9711"/>
    <rect
        fill="rgb(152,152,152)"
        height="1"
        width="1"
        x="20"
        y="13"
        id="rect9713"/>
    <rect
        fill="rgb(151,151,152)"
        height="1"
        width="1"
        x="21"
        y="13"
        id="rect9715"/>
    <rect
        fill="rgb(152,150,153)"
        height="1"
        width="1"
        x="22"
        y="13"
        id="rect9717"/>
    <rect
        fill="rgb(46,45,45)"
        height="1"
        width="1"
        x="23"
        y="13"
        id="rect9719"/>
    <rect
        fill="rgb(51,33,15)"
        height="1"
        width="1"
        x="14"
        y="14"
        id="rect9765"/>
    <rect
        fill="rgb(147,94,49)"
        height="1"
        width="1"
        x="15"
        y="14"
        id="rect9767"/>
    <rect
        fill="rgb(51,33,15)"
        height="1"
        width="1"
        x="16"
        y="14"
        id="rect9769"/>
    <rect
        fill="rgb(41,27,10)"
        height="1"
        width="1"
        x="17"
        y="14"
        id="rect9771"/>
    <rect
        fill="rgb(46,46,44)"
        height="1"
        width="1"
        x="18"
        y="14"
        id="rect9773"/>
    <rect
        fill="rgb(201,200,201)"
        height="1"
        width="1"
        x="19"
        y="14"
        id="rect9775"/>
    <rect
        fill="rgb(150,151,150)"
        height="1"
        width="1"
        x="20"
        y="14"
        id="rect9777"/>
    <rect
        fill="rgb(153,152,152)"
        height="1"
        width="1"
        x="21"
        y="14"
        id="rect9779"/>
    <rect
        fill="rgb(45,45,45)"
        height="1"
        width="1"
        x="22"
        y="14"
        id="rect9781"/>
    <rect
        fill="rgb(37,27,16)"
        height="1"
        width="1"
        x="12"
        y="15"
        id="rect9825"/>
    <rect
        fill="rgb(60,39,18)"
        height="1"
        width="1"
        x="13"
        y="15"
        id="rect9827"/>
    <rect
        fill="rgb(158,101,50)"
        height="1"
        width="1"
        x="14"
        y="15"
        id="rect9829"/>
    <rect
        fill="rgb(89,60,33)"
        height="1"
        width="1"
        x="15"
        y="15"
        id="rect9831"/>
    <rect
        fill="rgb(41,26,10)"
        height="1"
        width="1"
        x="16"
        y="15"
        id="rect9833"/>
    <rect
        fill="rgb(3,2,3)"
        height="1"
        width="1"
        x="19"
        y="15"
        id="rect9839"/>
    <rect
        fill="rgb(49,48,49)"
        height="1"
        width="1"
        x="20"
        y="15"
        id="rect9841"/>
    <rect
        fill="rgb(44,45,43)"
        height="1"
        width="1"
        x="21"
        y="15"
        id="rect9843"/>
    <rect
        fill="rgb(19,3,0)"
        height="1"
        width="1"
        x="12"
        y="16"
        id="rect9889"/>
    <rect
        fill="rgb(62,41,21)"
        height="1"
        width="1"
        x="13"
        y="16"
        id="rect9891"/>
    <rect
        fill="rgb(157,100,54)"
        height="1"
        width="1"
        x="14"
        y="16"
        id="rect9893"/>
    <rect
        fill="rgb(87,61,34)"
        height="1"
        width="1"
        x="15"
        y="16"
        id="rect9895"/>
    <rect
        fill="rgb(50,35,15)"
        height="1"
        width="1"
        x="16"
        y="16"
        id="rect9897"/>
    <rect
        fill="rgb(2,4,5)"
        height="1"
        width="1"
        x="19"
        y="16"
        id="rect9903"/>
    <rect
        fill="rgb(52,49,48)"
        height="1"
        width="1"
        x="20"
        y="16"
        id="rect9905"/>
    <rect
        fill="rgb(43,42,43)"
        height="1"
        width="1"
        x="21"
        y="16"
        id="rect9907"/>
    <rect
        fill="rgb(57,38,17)"
        height="1"
        width="1"
        x="11"
        y="17"
        id="rect9951"/>
    <rect
        fill="rgb(175,107,52)"
        height="1"
        width="1"
        x="12"
        y="17"
        id="rect9953"/>
    <rect
        fill="rgb(147,94,47)"
        height="1"
        width="1"
        x="13"
        y="17"
        id="rect9955"/>
    <rect
        fill="rgb(94,64,35)"
        height="1"
        width="1"
        x="14"
        y="17"
        id="rect9957"/>
    <rect
        fill="rgb(43,28,10)"
        height="1"
        width="1"
        x="15"
        y="17"
        id="rect9959"/>
    <rect
        fill="rgb(54,36,17)"
        height="1"
        width="1"
        x="10"
        y="18"
        id="rect10013"/>
    <rect
        fill="rgb(152,98,51)"
        height="1"
        width="1"
        x="11"
        y="18"
        id="rect10015"/>
    <rect
        fill="rgb(81,57,31)"
        height="1"
        width="1"
        x="12"
        y="18"
        id="rect10017"/>
    <rect
        fill="rgb(99,66,37)"
        height="1"
        width="1"
        x="13"
        y="18"
        id="rect10019"/>
    <rect
        fill="rgb(44,28,11)"
        height="1"
        width="1"
        x="14"
        y="18"
        id="rect10021"/>
    <rect
        fill="rgb(50,32,14)"
        height="1"
        width="1"
        x="9"
        y="19"
        id="rect10075"/>
    <rect
        fill="rgb(138,91,46)"
        height="1"
        width="1"
        x="10"
        y="19"
        id="rect10077"/>
    <rect
        fill="rgb(96,65,35)"
        height="1"
        width="1"
        x="11"
        y="19"
        id="rect10079"/>
    <rect
        fill="rgb(37,24,8)"
        height="1"
        width="1"
        x="12"
        y="19"
        id="rect10081"/>
    <rect
        fill="rgb(52,33,14)"
        height="1"
        width="1"
        x="13"
        y="19"
        id="rect10083"/>
    <rect
        fill="rgb(50,32,14)"
        height="1"
        width="1"
        x="8"
        y="20"
        id="rect10137"/>
    <rect
        fill="rgb(144,93,47)"
        height="1"
        width="1"
        x="9"
        y="20"
        id="rect10139"/>
    <rect
        fill="rgb(105,71,38)"
        height="1"
        width="1"
        x="10"
        y="20"
        id="rect10141"/>
    <rect
        fill="rgb(49,33,16)"
        height="1"
        width="1"
        x="11"
        y="20"
        id="rect10143"/>
    <rect
        fill="rgb(45,29,11)"
        height="1"
        width="1"
        x="7"
        y="21"
        id="rect10199"/>
    <rect
        fill="rgb(154,100,52)"
        height="1"
        width="1"
        x="8"
        y="21"
        id="rect10201"/>
    <rect
        fill="rgb(101,66,35)"
        height="1"
        width="1"
        x="9"
        y="21"
        id="rect10203"/>
    <rect
        fill="rgb(50,31,14)"
        height="1"
        width="1"
        x="10"
        y="21"
        id="rect10205"/>
    <rect
        fill="rgb(44,28,12)"
        height="1"
        width="1"
        x="7"
        y="22"
        id="rect10263"/>
    <rect
        fill="rgb(88,60,32)"
        height="1"
        width="1"
        x="8"
        y="22"
        id="rect10265"/>
    <rect
        fill="rgb(50,32,15)"
        height="1"
        width="1"
        x="9"
        y="22"
        id="rect10267"/>
    <rect
        fill="rgb(46,28,10)"
        height="1"
        width="1"
        x="7"
        y="23"
        id="rect10327"/>
    <rect
        fill="rgb(85,59,32)"
        height="1"
        width="1"
        x="8"
        y="23"
        id="rect10329"/>
    <rect
        fill="rgb(48,30,10)"
        height="1"
        width="1"
        x="9"
        y="23"
        id="rect10331"/>
    <rect
        fill="rgb(44,28,12)"
        height="1"
        width="1"
        x="8"
        y="24"
        id="rect10393"/>
</svg>
