<?xml version="1.0" encoding="UTF-8" standalone="no"?>
<svg
    xmlns:dc="http://purl.org/dc/elements/1.1/"
    xmlns:cc="http://creativecommons.org/ns#"
    xmlns:rdf="http://www.w3.org/1999/02/22-rdf-syntax-ns#"
    xmlns:sodipodi="http://sodipodi.sourceforge.net/DTD/sodipodi-0.dtd"
    xmlns:inkscape="http://www.inkscape.org/namespaces/inkscape"
    xmlns="http://www.w3.org/2000/svg"
    height="32px"
    version="1.1"
    width="32px"
    id="svg8833"
    sodipodi:docname="pickaxe.svg"
    inkscape:version="0.92.0 r15299">
    <metadata
        id="metadata8837">
        <rdf:RDF>
            <cc:Work
                rdf:about="">
                <dc:format>image/svg+xml</dc:format>
                <dc:type
                    rdf:resource="http://purl.org/dc/dcmitype/StillImage"/>
            </cc:Work>
        </rdf:RDF>
    </metadata>
    <sodipodi:namedview
        pagecolor="#ffffff"
        bordercolor="#666666"
        borderopacity="1"
        objecttolerance="10"
        gridtolerance="10"
        guidetolerance="10"
        inkscape:pageopacity="0"
        inkscape:pageshadow="2"
        inkscape:window-width="1920"
        inkscape:window-height="1009"
        id="namedview8835"
        showgrid="false"
        inkscape:zoom="14.75"
        inkscape:cx="41.206725"
        inkscape:cy="26.587651"
        inkscape:window-x="-8"
        inkscape:window-y="-8"
        inkscape:window-maximized="1"
        inkscape:current-layer="svg8833"/>
    <defs
        id="defs6783"/>
    <rect
        fill="rgb(38,40,36)"
        height="1"
        width="1"
        x="11"
        y="4"
        id="rect7063"/>
    <rect
        fill="rgb(45,45,42)"
        height="1"
        width="1"
        x="12"
        y="4"
        id="rect7065"/>
    <rect
        fill="rgb(39,38,36)"
        height="1"
        width="1"
        x="13"
        y="4"
        id="rect7067"/>
    <rect
        fill="rgb(32,34,30)"
        height="1"
        width="1"
        x="14"
        y="4"
        id="rect7069"/>
    <rect
        fill="rgb(38,40,36)"
        height="1"
        width="1"
        x="15"
        y="4"
        id="rect7071"/>
    <rect
        fill="rgb(28,31,27)"
        height="1"
        width="1"
        x="16"
        y="4"
        id="rect7073"/>
    <rect
        fill="rgb(35,35,31)"
        height="1"
        width="1"
        x="17"
        y="4"
        id="rect7075"/>
    <rect
        fill="rgb(31,31,29)"
        height="1"
        width="1"
        x="10"
        y="5"
        id="rect7125"/>
    <rect
        fill="rgb(124,122,114)"
        height="1"
        width="1"
        x="11"
        y="5"
        id="rect7127"/>
    <rect
        fill="rgb(129,126,118)"
        height="1"
        width="1"
        x="12"
        y="5"
        id="rect7129"/>
    <rect
        fill="rgb(92,91,85)"
        height="1"
        width="1"
        x="13"
        y="5"
        id="rect7131"/>
    <rect
        fill="rgb(96,96,89)"
        height="1"
        width="1"
        x="14"
        y="5"
        id="rect7133"/>
    <rect
        fill="rgb(103,101,96)"
        height="1"
        width="1"
        x="15"
        y="5"
        id="rect7135"/>
    <rect
        fill="rgb(107,106,99)"
        height="1"
        width="1"
        x="16"
        y="5"
        id="rect7137"/>
    <rect
        fill="rgb(115,113,107)"
        height="1"
        width="1"
        x="17"
        y="5"
        id="rect7139"/>
    <rect
        fill="rgb(38,39,34)"
        height="1"
        width="1"
        x="18"
        y="5"
        id="rect7141"/>
    <rect
        fill="rgb(42,42,39)"
        height="1"
        width="1"
        x="19"
        y="5"
        id="rect7143"/>
    <rect
        fill="rgb(39,39,36)"
        height="1"
        width="1"
        x="20"
        y="5"
        id="rect7145"/>
    <rect
        fill="rgb(65,48,26)"
        height="1"
        width="1"
        x="21"
        y="5"
        id="rect7147"/>
    <rect
        fill="rgb(34,27,15)"
        height="1"
        width="1"
        x="22"
        y="5"
        id="rect7149"/>
    <rect
        fill="rgb(33,26,12)"
        height="1"
        width="1"
        x="23"
        y="5"
        id="rect7151"/>
    <rect
        fill="rgb(29,30,27)"
        height="1"
        width="1"
        x="10"
        y="6"
        id="rect7189"/>
    <rect
        fill="rgb(127,124,117)"
        height="1"
        width="1"
        x="11"
        y="6"
        id="rect7191"/>
    <rect
        fill="rgb(125,121,116)"
        height="1"
        width="1"
        x="12"
        y="6"
        id="rect7193"/>
    <rect
        fill="rgb(96,96,90)"
        height="1"
        width="1"
        x="13"
        y="6"
        id="rect7195"/>
    <rect
        fill="rgb(98,94,90)"
        height="1"
        width="1"
        x="14"
        y="6"
        id="rect7197"/>
    <rect
        fill="rgb(98,96,90)"
        height="1"
        width="1"
        x="15"
        y="6"
        id="rect7199"/>
    <rect
        fill="rgb(110,109,101)"
        height="1"
        width="1"
        x="16"
        y="6"
        id="rect7201"/>
    <rect
        fill="rgb(110,108,104)"
        height="1"
        width="1"
        x="17"
        y="6"
        id="rect7203"/>
    <rect
        fill="rgb(40,42,38)"
        height="1"
        width="1"
        x="18"
        y="6"
        id="rect7205"/>
    <rect
        fill="rgb(38,39,34)"
        height="1"
        width="1"
        x="19"
        y="6"
        id="rect7207"/>
    <rect
        fill="rgb(34,33,32)"
        height="1"
        width="1"
        x="20"
        y="6"
        id="rect7209"/>
    <rect
        fill="rgb(62,46,23)"
        height="1"
        width="1"
        x="21"
        y="6"
        id="rect7211"/>
    <rect
        fill="rgb(31,25,11)"
        height="1"
        width="1"
        x="22"
        y="6"
        id="rect7213"/>
    <rect
        fill="rgb(38,30,17)"
        height="1"
        width="1"
        x="23"
        y="6"
        id="rect7215"/>
    <rect
        fill="rgb(36,37,34)"
        height="1"
        width="1"
        x="11"
        y="7"
        id="rect7255"/>
    <rect
        fill="rgb(37,39,35)"
        height="1"
        width="1"
        x="12"
        y="7"
        id="rect7257"/>
    <rect
        fill="rgb(29,29,28)"
        height="1"
        width="1"
        x="13"
        y="7"
        id="rect7259"/>
    <rect
        fill="rgb(30,32,30)"
        height="1"
        width="1"
        x="14"
        y="7"
        id="rect7261"/>
    <rect
        fill="rgb(37,38,36)"
        height="1"
        width="1"
        x="15"
        y="7"
        id="rect7263"/>
    <rect
        fill="rgb(101,99,94)"
        height="1"
        width="1"
        x="16"
        y="7"
        id="rect7265"/>
    <rect
        fill="rgb(104,103,97)"
        height="1"
        width="1"
        x="17"
        y="7"
        id="rect7267"/>
    <rect
        fill="rgb(99,98,93)"
        height="1"
        width="1"
        x="18"
        y="7"
        id="rect7269"/>
    <rect
        fill="rgb(106,102,97)"
        height="1"
        width="1"
        x="19"
        y="7"
        id="rect7271"/>
    <rect
        fill="rgb(107,105,101)"
        height="1"
        width="1"
        x="20"
        y="7"
        id="rect7273"/>
    <rect
        fill="rgb(138,107,70)"
        height="1"
        width="1"
        x="21"
        y="7"
        id="rect7275"/>
    <rect
        fill="rgb(59,46,24)"
        height="1"
        width="1"
        x="22"
        y="7"
        id="rect7277"/>
    <rect
        fill="rgb(57,42,22)"
        height="1"
        width="1"
        x="23"
        y="7"
        id="rect7279"/>
    <rect
        fill="rgb(54,52,49)"
        height="1"
        width="1"
        x="11"
        y="8"
        id="rect7319"/>
    <rect
        fill="rgb(50,51,49)"
        height="1"
        width="1"
        x="12"
        y="8"
        id="rect7321"/>
    <rect
        fill="rgb(53,52,49)"
        height="1"
        width="1"
        x="13"
        y="8"
        id="rect7323"/>
    <rect
        fill="rgb(53,53,50)"
        height="1"
        width="1"
        x="14"
        y="8"
        id="rect7325"/>
    <rect
        fill="rgb(44,45,42)"
        height="1"
        width="1"
        x="15"
        y="8"
        id="rect7327"/>
    <rect
        fill="rgb(110,108,104)"
        height="1"
        width="1"
        x="16"
        y="8"
        id="rect7329"/>
    <rect
        fill="rgb(108,106,102)"
        height="1"
        width="1"
        x="17"
        y="8"
        id="rect7331"/>
    <rect
        fill="rgb(98,96,90)"
        height="1"
        width="1"
        x="18"
        y="8"
        id="rect7333"/>
    <rect
        fill="rgb(111,110,103)"
        height="1"
        width="1"
        x="19"
        y="8"
        id="rect7335"/>
    <rect
        fill="rgb(109,108,104)"
        height="1"
        width="1"
        x="20"
        y="8"
        id="rect7337"/>
    <rect
        fill="rgb(151,120,75)"
        height="1"
        width="1"
        x="21"
        y="8"
        id="rect7339"/>
    <rect
        fill="rgb(61,42,15)"
        height="1"
        width="1"
        x="22"
        y="8"
        id="rect7341"/>
    <rect
        fill="rgb(60,43,18)"
        height="1"
        width="1"
        x="23"
        y="8"
        id="rect7343"/>
    <rect
        fill="rgb(38,37,32)"
        height="1"
        width="1"
        x="16"
        y="9"
        id="rect7393"/>
    <rect
        fill="rgb(36,36,33)"
        height="1"
        width="1"
        x="17"
        y="9"
        id="rect7395"/>
    <rect
        fill="rgb(119,117,110)"
        height="1"
        width="1"
        x="18"
        y="9"
        id="rect7397"/>
    <rect
        fill="rgb(97,96,91)"
        height="1"
        width="1"
        x="19"
        y="9"
        id="rect7399"/>
    <rect
        fill="rgb(93,92,86)"
        height="1"
        width="1"
        x="20"
        y="9"
        id="rect7401"/>
    <rect
        fill="rgb(96,95,90)"
        height="1"
        width="1"
        x="21"
        y="9"
        id="rect7403"/>
    <rect
        fill="rgb(41,42,38)"
        height="1"
        width="1"
        x="22"
        y="9"
        id="rect7405"/>
    <rect
        fill="rgb(36,36,33)"
        height="1"
        width="1"
        x="23"
        y="9"
        id="rect7407"/>
    <rect
        fill="rgb(61,46,23)"
        height="1"
        width="1"
        x="16"
        y="10"
        id="rect7457"/>
    <rect
        fill="rgb(56,41,20)"
        height="1"
        width="1"
        x="17"
        y="10"
        id="rect7459"/>
    <rect
        fill="rgb(90,63,30)"
        height="1"
        width="1"
        x="18"
        y="10"
        id="rect7461"/>
    <rect
        fill="rgb(112,109,104)"
        height="1"
        width="1"
        x="19"
        y="10"
        id="rect7463"/>
    <rect
        fill="rgb(122,119,115)"
        height="1"
        width="1"
        x="20"
        y="10"
        id="rect7465"/>
    <rect
        fill="rgb(90,88,82)"
        height="1"
        width="1"
        x="21"
        y="10"
        id="rect7467"/>
    <rect
        fill="rgb(109,107,103)"
        height="1"
        width="1"
        x="22"
        y="10"
        id="rect7469"/>
    <rect
        fill="rgb(106,103,97)"
        height="1"
        width="1"
        x="23"
        y="10"
        id="rect7471"/>
    <rect
        fill="rgb(36,37,32)"
        height="1"
        width="1"
        x="24"
        y="10"
        id="rect7473"/>
    <rect
        fill="rgb(39,37,34)"
        height="1"
        width="1"
        x="25"
        y="10"
        id="rect7475"/>
    <rect
        fill="rgb(53,39,18)"
        height="1"
        width="1"
        x="16"
        y="11"
        id="rect7521"/>
    <rect
        fill="rgb(55,42,19)"
        height="1"
        width="1"
        x="17"
        y="11"
        id="rect7523"/>
    <rect
        fill="rgb(82,58,25)"
        height="1"
        width="1"
        x="18"
        y="11"
        id="rect7525"/>
    <rect
        fill="rgb(115,111,105)"
        height="1"
        width="1"
        x="19"
        y="11"
        id="rect7527"/>
    <rect
        fill="rgb(115,112,108)"
        height="1"
        width="1"
        x="20"
        y="11"
        id="rect7529"/>
    <rect
        fill="rgb(93,90,83)"
        height="1"
        width="1"
        x="21"
        y="11"
        id="rect7531"/>
    <rect
        fill="rgb(112,111,107)"
        height="1"
        width="1"
        x="22"
        y="11"
        id="rect7533"/>
    <rect
        fill="rgb(104,102,96)"
        height="1"
        width="1"
        x="23"
        y="11"
        id="rect7535"/>
    <rect
        fill="rgb(34,35,31)"
        height="1"
        width="1"
        x="24"
        y="11"
        id="rect7537"/>
    <rect
        fill="rgb(38,37,36)"
        height="1"
        width="1"
        x="25"
        y="11"
        id="rect7539"/>
    <rect
        fill="rgb(59,42,22)"
        height="1"
        width="1"
        x="14"
        y="12"
        id="rect7581"/>
    <rect
        fill="rgb(60,45,23)"
        height="1"
        width="1"
        x="15"
        y="12"
        id="rect7583"/>
    <rect
        fill="rgb(121,83,40)"
        height="1"
        width="1"
        x="16"
        y="12"
        id="rect7585"/>
    <rect
        fill="rgb(123,86,41)"
        height="1"
        width="1"
        x="17"
        y="12"
        id="rect7587"/>
    <rect
        fill="rgb(62,47,23)"
        height="1"
        width="1"
        x="18"
        y="12"
        id="rect7589"/>
    <rect
        fill="rgb(32,24,11)"
        height="1"
        width="1"
        x="19"
        y="12"
        id="rect7591"/>
    <rect
        fill="rgb(39,31,18)"
        height="1"
        width="1"
        x="20"
        y="12"
        id="rect7593"/>
    <rect
        fill="rgb(63,61,58)"
        height="1"
        width="1"
        x="21"
        y="12"
        id="rect7595"/>
    <rect
        fill="rgb(99,97,92)"
        height="1"
        width="1"
        x="22"
        y="12"
        id="rect7597"/>
    <rect
        fill="rgb(95,92,88)"
        height="1"
        width="1"
        x="23"
        y="12"
        id="rect7599"/>
    <rect
        fill="rgb(34,35,30)"
        height="1"
        width="1"
        x="24"
        y="12"
        id="rect7601"/>
    <rect
        fill="rgb(38,37,34)"
        height="1"
        width="1"
        x="25"
        y="12"
        id="rect7603"/>
    <rect
        fill="rgb(65,48,24)"
        height="1"
        width="1"
        x="13"
        y="13"
        id="rect7643"/>
    <rect
        fill="rgb(130,93,45)"
        height="1"
        width="1"
        x="14"
        y="13"
        id="rect7645"/>
    <rect
        fill="rgb(137,99,48)"
        height="1"
        width="1"
        x="15"
        y="13"
        id="rect7647"/>
    <rect
        fill="rgb(60,44,21)"
        height="1"
        width="1"
        x="16"
        y="13"
        id="rect7649"/>
    <rect
        fill="rgb(59,44,21)"
        height="1"
        width="1"
        x="17"
        y="13"
        id="rect7651"/>
    <rect
        fill="rgb(33,26,13)"
        height="1"
        width="1"
        x="18"
        y="13"
        id="rect7653"/>
    <rect
        fill="rgb(34,34,31)"
        height="1"
        width="1"
        x="21"
        y="13"
        id="rect7659"/>
    <rect
        fill="rgb(114,110,106)"
        height="1"
        width="1"
        x="22"
        y="13"
        id="rect7661"/>
    <rect
        fill="rgb(109,107,102)"
        height="1"
        width="1"
        x="23"
        y="13"
        id="rect7663"/>
    <rect
        fill="rgb(37,37,34)"
        height="1"
        width="1"
        x="24"
        y="13"
        id="rect7665"/>
    <rect
        fill="rgb(33,33,30)"
        height="1"
        width="1"
        x="25"
        y="13"
        id="rect7667"/>
    <rect
        fill="rgb(65,48,24)"
        height="1"
        width="1"
        x="13"
        y="14"
        id="rect7707"/>
    <rect
        fill="rgb(135,97,48)"
        height="1"
        width="1"
        x="14"
        y="14"
        id="rect7709"/>
    <rect
        fill="rgb(134,95,48)"
        height="1"
        width="1"
        x="15"
        y="14"
        id="rect7711"/>
    <rect
        fill="rgb(58,41,20)"
        height="1"
        width="1"
        x="16"
        y="14"
        id="rect7713"/>
    <rect
        fill="rgb(57,43,20)"
        height="1"
        width="1"
        x="17"
        y="14"
        id="rect7715"/>
    <rect
        fill="rgb(34,27,13)"
        height="1"
        width="1"
        x="18"
        y="14"
        id="rect7717"/>
    <rect
        fill="rgb(40,41,36)"
        height="1"
        width="1"
        x="21"
        y="14"
        id="rect7723"/>
    <rect
        fill="rgb(104,102,98)"
        height="1"
        width="1"
        x="22"
        y="14"
        id="rect7725"/>
    <rect
        fill="rgb(113,112,107)"
        height="1"
        width="1"
        x="23"
        y="14"
        id="rect7727"/>
    <rect
        fill="rgb(34,35,30)"
        height="1"
        width="1"
        x="24"
        y="14"
        id="rect7729"/>
    <rect
        fill="rgb(32,33,31)"
        height="1"
        width="1"
        x="25"
        y="14"
        id="rect7731"/>
    <rect
        fill="rgb(59,44,22)"
        height="1"
        width="1"
        x="11"
        y="15"
        id="rect7767"/>
    <rect
        fill="rgb(57,43,22)"
        height="1"
        width="1"
        x="12"
        y="15"
        id="rect7769"/>
    <rect
        fill="rgb(112,79,39)"
        height="1"
        width="1"
        x="13"
        y="15"
        id="rect7771"/>
    <rect
        fill="rgb(70,51,24)"
        height="1"
        width="1"
        x="14"
        y="15"
        id="rect7773"/>
    <rect
        fill="rgb(76,56,31)"
        height="1"
        width="1"
        x="15"
        y="15"
        id="rect7775"/>
    <rect
        fill="rgb(29,22,10)"
        height="1"
        width="1"
        x="16"
        y="15"
        id="rect7777"/>
    <rect
        fill="rgb(42,34,18)"
        height="1"
        width="1"
        x="17"
        y="15"
        id="rect7779"/>
    <rect
        fill="rgb(34,36,32)"
        height="1"
        width="1"
        x="21"
        y="15"
        id="rect7787"/>
    <rect
        fill="rgb(109,108,102)"
        height="1"
        width="1"
        x="22"
        y="15"
        id="rect7789"/>
    <rect
        fill="rgb(112,109,104)"
        height="1"
        width="1"
        x="23"
        y="15"
        id="rect7791"/>
    <rect
        fill="rgb(35,35,33)"
        height="1"
        width="1"
        x="24"
        y="15"
        id="rect7793"/>
    <rect
        fill="rgb(40,37,35)"
        height="1"
        width="1"
        x="25"
        y="15"
        id="rect7795"/>
    <rect
        fill="rgb(56,40,17)"
        height="1"
        width="1"
        x="10"
        y="16"
        id="rect7829"/>
    <rect
        fill="rgb(116,80,38)"
        height="1"
        width="1"
        x="11"
        y="16"
        id="rect7831"/>
    <rect
        fill="rgb(112,78,33)"
        height="1"
        width="1"
        x="12"
        y="16"
        id="rect7833"/>
    <rect
        fill="rgb(69,51,26)"
        height="1"
        width="1"
        x="13"
        y="16"
        id="rect7835"/>
    <rect
        fill="rgb(35,27,17)"
        height="1"
        width="1"
        x="14"
        y="16"
        id="rect7837"/>
    <rect
        fill="rgb(36,30,16)"
        height="1"
        width="1"
        x="15"
        y="16"
        id="rect7839"/>
    <rect
        fill="rgb(38,40,38)"
        height="1"
        width="1"
        x="21"
        y="16"
        id="rect7851"/>
    <rect
        fill="rgb(116,115,106)"
        height="1"
        width="1"
        x="22"
        y="16"
        id="rect7853"/>
    <rect
        fill="rgb(120,118,111)"
        height="1"
        width="1"
        x="23"
        y="16"
        id="rect7855"/>
    <rect
        fill="rgb(37,39,35)"
        height="1"
        width="1"
        x="24"
        y="16"
        id="rect7857"/>
    <rect
        fill="rgb(40,40,37)"
        height="1"
        width="1"
        x="25"
        y="16"
        id="rect7859"/>
    <rect
        fill="rgb(55,40,18)"
        height="1"
        width="1"
        x="10"
        y="17"
        id="rect7893"/>
    <rect
        fill="rgb(124,89,42)"
        height="1"
        width="1"
        x="11"
        y="17"
        id="rect7895"/>
    <rect
        fill="rgb(119,82,37)"
        height="1"
        width="1"
        x="12"
        y="17"
        id="rect7897"/>
    <rect
        fill="rgb(66,48,22)"
        height="1"
        width="1"
        x="13"
        y="17"
        id="rect7899"/>
    <rect
        fill="rgb(33,26,14)"
        height="1"
        width="1"
        x="14"
        y="17"
        id="rect7901"/>
    <rect
        fill="rgb(36,29,15)"
        height="1"
        width="1"
        x="15"
        y="17"
        id="rect7903"/>
    <rect
        fill="rgb(37,36,33)"
        height="1"
        width="1"
        x="21"
        y="17"
        id="rect7915"/>
    <rect
        fill="rgb(122,119,111)"
        height="1"
        width="1"
        x="22"
        y="17"
        id="rect7917"/>
    <rect
        fill="rgb(115,113,106)"
        height="1"
        width="1"
        x="23"
        y="17"
        id="rect7919"/>
    <rect
        fill="rgb(42,40,37)"
        height="1"
        width="1"
        x="24"
        y="17"
        id="rect7921"/>
    <rect
        fill="rgb(36,35,31)"
        height="1"
        width="1"
        x="25"
        y="17"
        id="rect7923"/>
    <rect
        fill="rgb(65,49,24)"
        height="1"
        width="1"
        x="8"
        y="18"
        id="rect7953"/>
    <rect
        fill="rgb(68,51,25)"
        height="1"
        width="1"
        x="9"
        y="18"
        id="rect7955"/>
    <rect
        fill="rgb(127,91,43)"
        height="1"
        width="1"
        x="10"
        y="18"
        id="rect7957"/>
    <rect
        fill="rgb(75,56,31)"
        height="1"
        width="1"
        x="11"
        y="18"
        id="rect7959"/>
    <rect
        fill="rgb(64,49,24)"
        height="1"
        width="1"
        x="12"
        y="18"
        id="rect7961"/>
    <rect
        fill="rgb(34,26,15)"
        height="1"
        width="1"
        x="13"
        y="18"
        id="rect7963"/>
    <rect
        fill="rgb(36,35,33)"
        height="1"
        width="1"
        x="22"
        y="18"
        id="rect7981"/>
    <rect
        fill="rgb(31,32,29)"
        height="1"
        width="1"
        x="23"
        y="18"
        id="rect7983"/>
    <rect
        fill="rgb(67,52,25)"
        height="1"
        width="1"
        x="8"
        y="19"
        id="rect8017"/>
    <rect
        fill="rgb(69,51,27)"
        height="1"
        width="1"
        x="9"
        y="19"
        id="rect8019"/>
    <rect
        fill="rgb(115,85,40)"
        height="1"
        width="1"
        x="10"
        y="19"
        id="rect8021"/>
    <rect
        fill="rgb(70,53,28)"
        height="1"
        width="1"
        x="11"
        y="19"
        id="rect8023"/>
    <rect
        fill="rgb(64,49,24)"
        height="1"
        width="1"
        x="12"
        y="19"
        id="rect8025"/>
    <rect
        fill="rgb(32,23,10)"
        height="1"
        width="1"
        x="13"
        y="19"
        id="rect8027"/>
    <rect
        fill="rgb(34,33,30)"
        height="1"
        width="1"
        x="22"
        y="19"
        id="rect8045"/>
    <rect
        fill="rgb(38,37,33)"
        height="1"
        width="1"
        x="23"
        y="19"
        id="rect8047"/>
    <rect
        fill="rgb(65,50,29)"
        height="1"
        width="1"
        x="6"
        y="20"
        id="rect8077"/>
    <rect
        fill="rgb(56,41,19)"
        height="1"
        width="1"
        x="7"
        y="20"
        id="rect8079"/>
    <rect
        fill="rgb(118,82,38)"
        height="1"
        width="1"
        x="8"
        y="20"
        id="rect8081"/>
    <rect
        fill="rgb(118,83,39)"
        height="1"
        width="1"
        x="9"
        y="20"
        id="rect8083"/>
    <rect
        fill="rgb(57,42,20)"
        height="1"
        width="1"
        x="10"
        y="20"
        id="rect8085"/>
    <rect
        fill="rgb(38,31,18)"
        height="1"
        width="1"
        x="11"
        y="20"
        id="rect8087"/>
    <rect
        fill="rgb(38,30,17)"
        height="1"
        width="1"
        x="12"
        y="20"
        id="rect8089"/>
    <rect
        fill="rgb(65,49,25)"
        height="1"
        width="1"
        x="5"
        y="21"
        id="rect8139"/>
    <rect
        fill="rgb(121,85,41)"
        height="1"
        width="1"
        x="6"
        y="21"
        id="rect8141"/>
    <rect
        fill="rgb(113,79,35)"
        height="1"
        width="1"
        x="7"
        y="21"
        id="rect8143"/>
    <rect
        fill="rgb(69,51,26)"
        height="1"
        width="1"
        x="8"
        y="21"
        id="rect8145"/>
    <rect
        fill="rgb(70,49,24)"
        height="1"
        width="1"
        x="9"
        y="21"
        id="rect8147"/>
    <rect
        fill="rgb(37,28,16)"
        height="1"
        width="1"
        x="10"
        y="21"
        id="rect8149"/>
    <rect
        fill="rgb(64,48,24)"
        height="1"
        width="1"
        x="5"
        y="22"
        id="rect8203"/>
    <rect
        fill="rgb(122,85,40)"
        height="1"
        width="1"
        x="6"
        y="22"
        id="rect8205"/>
    <rect
        fill="rgb(115,80,38)"
        height="1"
        width="1"
        x="7"
        y="22"
        id="rect8207"/>
    <rect
        fill="rgb(64,46,22)"
        height="1"
        width="1"
        x="8"
        y="22"
        id="rect8209"/>
    <rect
        fill="rgb(66,47,24)"
        height="1"
        width="1"
        x="9"
        y="22"
        id="rect8211"/>
    <rect
        fill="rgb(35,27,14)"
        height="1"
        width="1"
        x="10"
        y="22"
        id="rect8213"/>
    <rect
        fill="rgb(53,39,18)"
        height="1"
        width="1"
        x="3"
        y="23"
        id="rect8263"/>
    <rect
        fill="rgb(60,44,22)"
        height="1"
        width="1"
        x="4"
        y="23"
        id="rect8265"/>
    <rect
        fill="rgb(120,88,47)"
        height="1"
        width="1"
        x="5"
        y="23"
        id="rect8267"/>
    <rect
        fill="rgb(59,43,20)"
        height="1"
        width="1"
        x="6"
        y="23"
        id="rect8269"/>
    <rect
        fill="rgb(65,47,23)"
        height="1"
        width="1"
        x="7"
        y="23"
        id="rect8271"/>
    <rect
        fill="rgb(32,26,13)"
        height="1"
        width="1"
        x="8"
        y="23"
        id="rect8273"/>
    <rect
        fill="rgb(35,26,12)"
        height="1"
        width="1"
        x="9"
        y="23"
        id="rect8275"/>
    <rect
        fill="rgb(57,41,18)"
        height="1"
        width="1"
        x="3"
        y="24"
        id="rect8327"/>
    <rect
        fill="rgb(58,42,19)"
        height="1"
        width="1"
        x="4"
        y="24"
        id="rect8329"/>
    <rect
        fill="rgb(37,30,17)"
        height="1"
        width="1"
        x="5"
        y="24"
        id="rect8331"/>
    <rect
        fill="rgb(31,25,12)"
        height="1"
        width="1"
        x="6"
        y="24"
        id="rect8333"/>
    <rect
        fill="rgb(32,24,11)"
        height="1"
        width="1"
        x="7"
        y="24"
        id="rect8335"/>
    <rect
        fill="rgb(60,45,23)"
        height="1"
        width="1"
        x="3"
        y="25"
        id="rect8391"/>
    <rect
        fill="rgb(64,48,26)"
        height="1"
        width="1"
        x="4"
        y="25"
        id="rect8393"/>
    <rect
        fill="rgb(32,26,13)"
        height="1"
        width="1"
        x="5"
        y="25"
        id="rect8395"/>
    <rect
        fill="rgb(33,27,14)"
        height="1"
        width="1"
        x="6"
        y="25"
        id="rect8397"/>
    <rect
        fill="rgb(32,25,13)"
        height="1"
        width="1"
        x="7"
        y="25"
        id="rect8399"/>
</svg>
