<svg xmlns:dc="http://purl.org/dc/elements/1.1/" xmlns:ns1="http://sodipodi.sourceforge.net/DTD/sodipodi-0.dtd"
     xmlns:ns2="http://www.inkscape.org/namespaces/inkscape"
     xmlns:ns4="http://creativecommons.org/ns#" xmlns:rdf="http://www.w3.org/1999/02/22-rdf-syntax-ns#"
     xmlns="http://www.w3.org/2000/svg" height="32px" shape-rendering="crispEdges" version="1.1"
     viewBox="0 0 32 32" width="32px" id="svg12945" ns1:docname="pixel_telephoto_lens.svg" ns2:version="0.92.0 r15299">
    <metadata id="metadata12949">
        <rdf:RDF>
            <ns4:Work rdf:about="">
                <dc:format>image/svg+xml</dc:format>
                <dc:type rdf:resource="http://purl.org/dc/dcmitype/StillImage"/>
            </ns4:Work>
        </rdf:RDF>
    </metadata>
    <ns1:namedview pagecolor="#ffffff" bordercolor="#666666" borderopacity="1" objecttolerance="10" gridtolerance="10"
                   guidetolerance="10" ns2:pageopacity="0" ns2:pageshadow="2" ns2:window-width="1920"
                   ns2:window-height="1009" id="namedview12947" showgrid="false" ns2:zoom="14.75" ns2:cx="50.122737"
                   ns2:cy="15.409259" ns2:window-x="-8" ns2:window-y="-8" ns2:window-maximized="1"
                   ns2:current-layer="svg12945"/>
    <defs id="defs10895"/>
    <rect fill="rgb(75,82,88)" height="1" width="1" x="11" y="3" id="rect11111"/>
    <rect fill="rgb(75,81,89)" height="1" width="1" x="12" y="3" id="rect11113"/>
    <rect fill="rgb(77,82,90)" height="1" width="1" x="13" y="3" id="rect11115"/>
    <rect fill="rgb(74,79,88)" height="1" width="1" x="14" y="3" id="rect11117"/>
    <rect fill="rgb(76,81,89)" height="1" width="1" x="15" y="3" id="rect11119"/>
    <rect fill="rgb(76,82,89)" height="1" width="1" x="16" y="3" id="rect11121"/>
    <rect fill="rgb(73,80,87)" height="1" width="1" x="17" y="3" id="rect11123"/>
    <rect fill="rgb(73,80,85)" height="1" width="1" x="18" y="3" id="rect11125"/>
    <rect fill="rgb(74,80,87)" height="1" width="1" x="19" y="3" id="rect11127"/>
    <rect fill="rgb(73,79,86)" height="1" width="1" x="20" y="3" id="rect11129"/>
    <rect fill="rgb(39,45,50)" height="1" width="1" x="10" y="4" id="rect11173"/>
    <rect fill="rgb(39,46,51)" height="1" width="1" x="11" y="4" id="rect11175"/>
    <rect fill="rgb(40,46,51)" height="1" width="1" x="12" y="4" id="rect11177"/>
    <rect fill="rgb(37,42,48)" height="1" width="1" x="13" y="4" id="rect11179"/>
    <rect fill="rgb(34,42,46)" height="1" width="1" x="14" y="4" id="rect11181"/>
    <rect fill="rgb(35,43,48)" height="1" width="1" x="15" y="4" id="rect11183"/>
    <rect fill="rgb(34,43,47)" height="1" width="1" x="16" y="4" id="rect11185"/>
    <rect fill="rgb(36,43,47)" height="1" width="1" x="17" y="4" id="rect11187"/>
    <rect fill="rgb(35,43,47)" height="1" width="1" x="18" y="4" id="rect11189"/>
    <rect fill="rgb(34,42,46)" height="1" width="1" x="19" y="4" id="rect11191"/>
    <rect fill="rgb(36,42,48)" height="1" width="1" x="20" y="4" id="rect11193"/>
    <rect fill="rgb(38,43,48)" height="1" width="1" x="21" y="4" id="rect11195"/>
    <rect fill="rgb(72,78,86)" height="1" width="1" x="10" y="5" id="rect11237"/>
    <rect fill="rgb(73,79,85)" height="1" width="1" x="11" y="5" id="rect11239"/>
    <rect fill="rgb(76,82,88)" height="1" width="1" x="12" y="5" id="rect11241"/>
    <rect fill="rgb(59,66,73)" height="1" width="1" x="13" y="5" id="rect11243"/>
    <rect fill="rgb(59,67,73)" height="1" width="1" x="14" y="5" id="rect11245"/>
    <rect fill="rgb(62,68,76)" height="1" width="1" x="15" y="5" id="rect11247"/>
    <rect fill="rgb(60,67,74)" height="1" width="1" x="16" y="5" id="rect11249"/>
    <rect fill="rgb(63,69,77)" height="1" width="1" x="17" y="5" id="rect11251"/>
    <rect fill="rgb(61,68,74)" height="1" width="1" x="18" y="5" id="rect11253"/>
    <rect fill="rgb(62,68,76)" height="1" width="1" x="19" y="5" id="rect11255"/>
    <rect fill="rgb(61,67,75)" height="1" width="1" x="20" y="5" id="rect11257"/>
    <rect fill="rgb(64,69,77)" height="1" width="1" x="21" y="5" id="rect11259"/>
    <rect fill="rgb(72,79,85)" height="1" width="1" x="10" y="6" id="rect11301"/>
    <rect fill="rgb(75,81,88)" height="1" width="1" x="11" y="6" id="rect11303"/>
    <rect fill="rgb(75,79,88)" height="1" width="1" x="12" y="6" id="rect11305"/>
    <rect fill="rgb(62,69,75)" height="1" width="1" x="13" y="6" id="rect11307"/>
    <rect fill="rgb(62,67,75)" height="1" width="1" x="14" y="6" id="rect11309"/>
    <rect fill="rgb(60,66,73)" height="1" width="1" x="15" y="6" id="rect11311"/>
    <rect fill="rgb(61,68,74)" height="1" width="1" x="16" y="6" id="rect11313"/>
    <rect fill="rgb(61,67,75)" height="1" width="1" x="17" y="6" id="rect11315"/>
    <rect fill="rgb(62,69,77)" height="1" width="1" x="18" y="6" id="rect11317"/>
    <rect fill="rgb(62,68,74)" height="1" width="1" x="19" y="6" id="rect11319"/>
    <rect fill="rgb(62,66,76)" height="1" width="1" x="20" y="6" id="rect11321"/>
    <rect fill="rgb(63,69,76)" height="1" width="1" x="21" y="6" id="rect11323"/>
    <rect fill="rgb(75,82,88)" height="1" width="1" x="10" y="7" id="rect11365"/>
    <rect fill="rgb(76,82,89)" height="1" width="1" x="11" y="7" id="rect11367"/>
    <rect fill="rgb(76,83,89)" height="1" width="1" x="12" y="7" id="rect11369"/>
    <rect fill="rgb(59,64,73)" height="1" width="1" x="13" y="7" id="rect11371"/>
    <rect fill="rgb(60,67,75)" height="1" width="1" x="14" y="7" id="rect11373"/>
    <rect fill="rgb(62,68,76)" height="1" width="1" x="15" y="7" id="rect11375"/>
    <rect fill="rgb(60,65,73)" height="1" width="1" x="16" y="7" id="rect11377"/>
    <rect fill="rgb(61,69,76)" height="1" width="1" x="17" y="7" id="rect11379"/>
    <rect fill="rgb(61,68,76)" height="1" width="1" x="18" y="7" id="rect11381"/>
    <rect fill="rgb(61,65,73)" height="1" width="1" x="19" y="7" id="rect11383"/>
    <rect fill="rgb(60,66,75)" height="1" width="1" x="20" y="7" id="rect11385"/>
    <rect fill="rgb(60,66,74)" height="1" width="1" x="21" y="7" id="rect11387"/>
    <rect fill="rgb(58,64,72)" height="1" width="1" x="10" y="8" id="rect11429"/>
    <rect fill="rgb(60,65,73)" height="1" width="1" x="11" y="8" id="rect11431"/>
    <rect fill="rgb(57,65,73)" height="1" width="1" x="12" y="8" id="rect11433"/>
    <rect fill="rgb(48,54,60)" height="1" width="1" x="13" y="8" id="rect11435"/>
    <rect fill="rgb(47,53,60)" height="1" width="1" x="14" y="8" id="rect11437"/>
    <rect fill="rgb(43,50,57)" height="1" width="1" x="15" y="8" id="rect11439"/>
    <rect fill="rgb(46,53,60)" height="1" width="1" x="16" y="8" id="rect11441"/>
    <rect fill="rgb(45,51,58)" height="1" width="1" x="17" y="8" id="rect11443"/>
    <rect fill="rgb(46,53,59)" height="1" width="1" x="18" y="8" id="rect11445"/>
    <rect fill="rgb(46,54,58)" height="1" width="1" x="19" y="8" id="rect11447"/>
    <rect fill="rgb(45,52,60)" height="1" width="1" x="20" y="8" id="rect11449"/>
    <rect fill="rgb(44,53,59)" height="1" width="1" x="21" y="8" id="rect11451"/>
    <rect fill="rgb(76,81,89)" height="1" width="1" x="10" y="9" id="rect11493"/>
    <rect fill="rgb(76,83,89)" height="1" width="1" x="11" y="9" id="rect11495"/>
    <rect fill="rgb(75,80,87)" height="1" width="1" x="12" y="9" id="rect11497"/>
    <rect fill="rgb(63,68,76)" height="1" width="1" x="13" y="9" id="rect11499"/>
    <rect fill="rgb(62,68,75)" height="1" width="1" x="14" y="9" id="rect11501"/>
    <rect fill="rgb(61,67,75)" height="1" width="1" x="15" y="9" id="rect11503"/>
    <rect fill="rgb(62,67,73)" height="1" width="1" x="16" y="9" id="rect11505"/>
    <rect fill="rgb(60,66,74)" height="1" width="1" x="17" y="9" id="rect11507"/>
    <rect fill="rgb(61,67,74)" height="1" width="1" x="18" y="9" id="rect11509"/>
    <rect fill="rgb(62,68,76)" height="1" width="1" x="19" y="9" id="rect11511"/>
    <rect fill="rgb(59,67,74)" height="1" width="1" x="20" y="9" id="rect11513"/>
    <rect fill="rgb(61,68,76)" height="1" width="1" x="21" y="9" id="rect11515"/>
    <rect fill="rgb(75,81,88)" height="1" width="1" x="10" y="10" id="rect11557"/>
    <rect fill="rgb(74,82,88)" height="1" width="1" x="11" y="10" id="rect11559"/>
    <rect fill="rgb(76,82,90)" height="1" width="1" x="12" y="10" id="rect11561"/>
    <rect fill="rgb(63,68,76)" height="1" width="1" x="13" y="10" id="rect11563"/>
    <rect fill="rgb(61,68,75)" height="1" width="1" x="14" y="10" id="rect11565"/>
    <rect fill="rgb(62,69,75)" height="1" width="1" x="15" y="10" id="rect11567"/>
    <rect fill="rgb(62,68,74)" height="1" width="1" x="16" y="10" id="rect11569"/>
    <rect fill="rgb(59,66,73)" height="1" width="1" x="17" y="10" id="rect11571"/>
    <rect fill="rgb(61,66,73)" height="1" width="1" x="18" y="10" id="rect11573"/>
    <rect fill="rgb(59,64,72)" height="1" width="1" x="19" y="10" id="rect11575"/>
    <rect fill="rgb(63,69,77)" height="1" width="1" x="20" y="10" id="rect11577"/>
    <rect fill="rgb(59,66,73)" height="1" width="1" x="21" y="10" id="rect11579"/>
    <rect fill="rgb(70,75,82)" height="1" width="1" x="10" y="11" id="rect11621"/>
    <rect fill="rgb(73,79,85)" height="1" width="1" x="11" y="11" id="rect11623"/>
    <rect fill="rgb(69,74,80)" height="1" width="1" x="12" y="11" id="rect11625"/>
    <rect fill="rgb(59,65,71)" height="1" width="1" x="13" y="11" id="rect11627"/>
    <rect fill="rgb(57,63,71)" height="1" width="1" x="14" y="11" id="rect11629"/>
    <rect fill="rgb(59,63,72)" height="1" width="1" x="15" y="11" id="rect11631"/>
    <rect fill="rgb(55,63,70)" height="1" width="1" x="16" y="11" id="rect11633"/>
    <rect fill="rgb(57,64,70)" height="1" width="1" x="17" y="11" id="rect11635"/>
    <rect fill="rgb(55,62,68)" height="1" width="1" x="18" y="11" id="rect11637"/>
    <rect fill="rgb(58,62,69)" height="1" width="1" x="19" y="11" id="rect11639"/>
    <rect fill="rgb(59,65,73)" height="1" width="1" x="20" y="11" id="rect11641"/>
    <rect fill="rgb(58,63,68)" height="1" width="1" x="21" y="11" id="rect11643"/>
    <rect fill="rgb(75,81,90)" height="1" width="1" x="10" y="12" id="rect11685"/>
    <rect fill="rgb(67,73,81)" height="1" width="1" x="11" y="12" id="rect11687"/>
    <rect fill="rgb(66,75,80)" height="1" width="1" x="12" y="12" id="rect11689"/>
    <rect fill="rgb(56,61,67)" height="1" width="1" x="13" y="12" id="rect11691"/>
    <rect fill="rgb(64,68,77)" height="1" width="1" x="14" y="12" id="rect11693"/>
    <rect fill="rgb(63,69,76)" height="1" width="1" x="15" y="12" id="rect11695"/>
    <rect fill="rgb(62,66,74)" height="1" width="1" x="16" y="12" id="rect11697"/>
    <rect fill="rgb(60,65,72)" height="1" width="1" x="17" y="12" id="rect11699"/>
    <rect fill="rgb(53,59,64)" height="1" width="1" x="18" y="12" id="rect11701"/>
    <rect fill="rgb(51,56,63)" height="1" width="1" x="19" y="12" id="rect11703"/>
    <rect fill="rgb(53,58,65)" height="1" width="1" x="20" y="12" id="rect11705"/>
    <rect fill="rgb(64,67,75)" height="1" width="1" x="21" y="12" id="rect11707"/>
    <rect fill="rgb(75,80,88)" height="1" width="1" x="10" y="13" id="rect11749"/>
    <rect fill="rgb(67,73,80)" height="1" width="1" x="11" y="13" id="rect11751"/>
    <rect fill="rgb(68,75,82)" height="1" width="1" x="12" y="13" id="rect11753"/>
    <rect fill="rgb(52,57,64)" height="1" width="1" x="13" y="13" id="rect11755"/>
    <rect fill="rgb(62,67,75)" height="1" width="1" x="14" y="13" id="rect11757"/>
    <rect fill="rgb(62,67,73)" height="1" width="1" x="15" y="13" id="rect11759"/>
    <rect fill="rgb(62,68,74)" height="1" width="1" x="16" y="13" id="rect11761"/>
    <rect fill="rgb(59,65,72)" height="1" width="1" x="17" y="13" id="rect11763"/>
    <rect fill="rgb(51,56,64)" height="1" width="1" x="18" y="13" id="rect11765"/>
    <rect fill="rgb(49,55,63)" height="1" width="1" x="19" y="13" id="rect11767"/>
    <rect fill="rgb(51,57,63)" height="1" width="1" x="20" y="13" id="rect11769"/>
    <rect fill="rgb(62,67,74)" height="1" width="1" x="21" y="13" id="rect11771"/>
    <rect fill="rgb(75,82,88)" height="1" width="1" x="10" y="14" id="rect11813"/>
    <rect fill="rgb(66,73,79)" height="1" width="1" x="11" y="14" id="rect11815"/>
    <rect fill="rgb(70,75,82)" height="1" width="1" x="12" y="14" id="rect11817"/>
    <rect fill="rgb(52,58,64)" height="1" width="1" x="13" y="14" id="rect11819"/>
    <rect fill="rgb(63,69,76)" height="1" width="1" x="14" y="14" id="rect11821"/>
    <rect fill="rgb(62,66,75)" height="1" width="1" x="15" y="14" id="rect11823"/>
    <rect fill="rgb(61,66,74)" height="1" width="1" x="16" y="14" id="rect11825"/>
    <rect fill="rgb(59,66,72)" height="1" width="1" x="17" y="14" id="rect11827"/>
    <rect fill="rgb(51,57,63)" height="1" width="1" x="18" y="14" id="rect11829"/>
    <rect fill="rgb(52,58,64)" height="1" width="1" x="19" y="14" id="rect11831"/>
    <rect fill="rgb(47,55,59)" height="1" width="1" x="20" y="14" id="rect11833"/>
    <rect fill="rgb(63,70,75)" height="1" width="1" x="21" y="14" id="rect11835"/>
    <rect fill="rgb(81,88,94)" height="1" width="1" x="10" y="15" id="rect11877"/>
    <rect fill="rgb(77,83,90)" height="1" width="1" x="11" y="15" id="rect11879"/>
    <rect fill="rgb(75,82,90)" height="1" width="1" x="12" y="15" id="rect11881"/>
    <rect fill="rgb(58,64,70)" height="1" width="1" x="13" y="15" id="rect11883"/>
    <rect fill="rgb(69,74,80)" height="1" width="1" x="14" y="15" id="rect11885"/>
    <rect fill="rgb(71,76,85)" height="1" width="1" x="15" y="15" id="rect11887"/>
    <rect fill="rgb(67,73,81)" height="1" width="1" x="16" y="15" id="rect11889"/>
    <rect fill="rgb(70,76,83)" height="1" width="1" x="17" y="15" id="rect11891"/>
    <rect fill="rgb(56,62,67)" height="1" width="1" x="18" y="15" id="rect11893"/>
    <rect fill="rgb(55,60,68)" height="1" width="1" x="19" y="15" id="rect11895"/>
    <rect fill="rgb(55,60,69)" height="1" width="1" x="20" y="15" id="rect11897"/>
    <rect fill="rgb(67,74,80)" height="1" width="1" x="21" y="15" id="rect11899"/>
    <rect fill="rgb(75,81,87)" height="1" width="1" x="10" y="16" id="rect11941"/>
    <rect fill="rgb(75,80,88)" height="1" width="1" x="11" y="16" id="rect11943"/>
    <rect fill="rgb(73,80,85)" height="1" width="1" x="12" y="16" id="rect11945"/>
    <rect fill="rgb(62,68,75)" height="1" width="1" x="13" y="16" id="rect11947"/>
    <rect fill="rgb(62,67,76)" height="1" width="1" x="14" y="16" id="rect11949"/>
    <rect fill="rgb(61,68,75)" height="1" width="1" x="15" y="16" id="rect11951"/>
    <rect fill="rgb(60,67,73)" height="1" width="1" x="16" y="16" id="rect11953"/>
    <rect fill="rgb(59,65,73)" height="1" width="1" x="17" y="16" id="rect11955"/>
    <rect fill="rgb(60,67,74)" height="1" width="1" x="18" y="16" id="rect11957"/>
    <rect fill="rgb(61,69,78)" height="1" width="1" x="19" y="16" id="rect11959"/>
    <rect fill="rgb(63,69,76)" height="1" width="1" x="20" y="16" id="rect11961"/>
    <rect fill="rgb(62,69,77)" height="1" width="1" x="21" y="16" id="rect11963"/>
    <rect fill="rgb(74,80,86)" height="1" width="1" x="10" y="17" id="rect12005"/>
    <rect fill="rgb(76,82,88)" height="1" width="1" x="11" y="17" id="rect12007"/>
    <rect fill="rgb(76,80,86)" height="1" width="1" x="12" y="17" id="rect12009"/>
    <rect fill="rgb(61,67,73)" height="1" width="1" x="13" y="17" id="rect12011"/>
    <rect fill="rgb(61,67,75)" height="1" width="1" x="14" y="17" id="rect12013"/>
    <rect fill="rgb(62,68,74)" height="1" width="1" x="15" y="17" id="rect12015"/>
    <rect fill="rgb(61,66,75)" height="1" width="1" x="16" y="17" id="rect12017"/>
    <rect fill="rgb(63,69,74)" height="1" width="1" x="17" y="17" id="rect12019"/>
    <rect fill="rgb(60,69,74)" height="1" width="1" x="18" y="17" id="rect12021"/>
    <rect fill="rgb(61,65,73)" height="1" width="1" x="19" y="17" id="rect12023"/>
    <rect fill="rgb(60,66,74)" height="1" width="1" x="20" y="17" id="rect12025"/>
    <rect fill="rgb(62,67,73)" height="1" width="1" x="21" y="17" id="rect12027"/>
    <rect fill="rgb(76,82,89)" height="1" width="1" x="10" y="18" id="rect12069"/>
    <rect fill="rgb(78,84,91)" height="1" width="1" x="11" y="18" id="rect12071"/>
    <rect fill="rgb(73,82,89)" height="1" width="1" x="12" y="18" id="rect12073"/>
    <rect fill="rgb(61,67,76)" height="1" width="1" x="13" y="18" id="rect12075"/>
    <rect fill="rgb(62,69,75)" height="1" width="1" x="14" y="18" id="rect12077"/>
    <rect fill="rgb(62,69,76)" height="1" width="1" x="15" y="18" id="rect12079"/>
    <rect fill="rgb(62,69,76)" height="1" width="1" x="16" y="18" id="rect12081"/>
    <rect fill="rgb(60,64,72)" height="1" width="1" x="17" y="18" id="rect12083"/>
    <rect fill="rgb(61,68,74)" height="1" width="1" x="18" y="18" id="rect12085"/>
    <rect fill="rgb(62,68,75)" height="1" width="1" x="19" y="18" id="rect12087"/>
    <rect fill="rgb(58,64,72)" height="1" width="1" x="20" y="18" id="rect12089"/>
    <rect fill="rgb(60,66,74)" height="1" width="1" x="21" y="18" id="rect12091"/>
    <rect fill="rgb(73,81,87)" height="1" width="1" x="10" y="19" id="rect12133"/>
    <rect fill="rgb(77,83,90)" height="1" width="1" x="11" y="19" id="rect12135"/>
    <rect fill="rgb(75,81,87)" height="1" width="1" x="12" y="19" id="rect12137"/>
    <rect fill="rgb(61,67,75)" height="1" width="1" x="13" y="19" id="rect12139"/>
    <rect fill="rgb(61,67,76)" height="1" width="1" x="14" y="19" id="rect12141"/>
    <rect fill="rgb(62,67,75)" height="1" width="1" x="15" y="19" id="rect12143"/>
    <rect fill="rgb(63,68,75)" height="1" width="1" x="16" y="19" id="rect12145"/>
    <rect fill="rgb(60,67,73)" height="1" width="1" x="17" y="19" id="rect12147"/>
    <rect fill="rgb(62,68,75)" height="1" width="1" x="18" y="19" id="rect12149"/>
    <rect fill="rgb(61,65,75)" height="1" width="1" x="19" y="19" id="rect12151"/>
    <rect fill="rgb(61,67,75)" height="1" width="1" x="20" y="19" id="rect12153"/>
    <rect fill="rgb(62,68,76)" height="1" width="1" x="21" y="19" id="rect12155"/>
    <rect fill="rgb(74,81,88)" height="1" width="1" x="10" y="20" id="rect12197"/>
    <rect fill="rgb(77,84,90)" height="1" width="1" x="11" y="20" id="rect12199"/>
    <rect fill="rgb(76,82,90)" height="1" width="1" x="12" y="20" id="rect12201"/>
    <rect fill="rgb(61,67,74)" height="1" width="1" x="13" y="20" id="rect12203"/>
    <rect fill="rgb(62,69,75)" height="1" width="1" x="14" y="20" id="rect12205"/>
    <rect fill="rgb(61,65,73)" height="1" width="1" x="15" y="20" id="rect12207"/>
    <rect fill="rgb(62,66,76)" height="1" width="1" x="16" y="20" id="rect12209"/>
    <rect fill="rgb(61,67,75)" height="1" width="1" x="17" y="20" id="rect12211"/>
    <rect fill="rgb(59,65,71)" height="1" width="1" x="18" y="20" id="rect12213"/>
    <rect fill="rgb(62,68,76)" height="1" width="1" x="19" y="20" id="rect12215"/>
    <rect fill="rgb(62,68,75)" height="1" width="1" x="20" y="20" id="rect12217"/>
    <rect fill="rgb(63,69,77)" height="1" width="1" x="21" y="20" id="rect12219"/>
    <rect fill="rgb(78,82,90)" height="1" width="1" x="10" y="21" id="rect12261"/>
    <rect fill="rgb(70,76,85)" height="1" width="1" x="11" y="21" id="rect12263"/>
    <rect fill="rgb(73,80,88)" height="1" width="1" x="12" y="21" id="rect12265"/>
    <rect fill="rgb(60,67,74)" height="1" width="1" x="13" y="21" id="rect12267"/>
    <rect fill="rgb(61,66,74)" height="1" width="1" x="14" y="21" id="rect12269"/>
    <rect fill="rgb(61,66,74)" height="1" width="1" x="15" y="21" id="rect12271"/>
    <rect fill="rgb(59,67,73)" height="1" width="1" x="16" y="21" id="rect12273"/>
    <rect fill="rgb(62,67,74)" height="1" width="1" x="17" y="21" id="rect12275"/>
    <rect fill="rgb(62,67,77)" height="1" width="1" x="18" y="21" id="rect12277"/>
    <rect fill="rgb(62,68,76)" height="1" width="1" x="19" y="21" id="rect12279"/>
    <rect fill="rgb(62,68,75)" height="1" width="1" x="20" y="21" id="rect12281"/>
    <rect fill="rgb(62,68,77)" height="1" width="1" x="21" y="21" id="rect12283"/>
    <rect fill="rgb(78,85,91)" height="1" width="1" x="10" y="22" id="rect12325"/>
    <rect fill="rgb(75,82,87)" height="1" width="1" x="11" y="22" id="rect12327"/>
    <rect fill="rgb(74,80,88)" height="1" width="1" x="12" y="22" id="rect12329"/>
    <rect fill="rgb(62,70,76)" height="1" width="1" x="13" y="22" id="rect12331"/>
    <rect fill="rgb(62,67,74)" height="1" width="1" x="14" y="22" id="rect12333"/>
    <rect fill="rgb(64,71,78)" height="1" width="1" x="15" y="22" id="rect12335"/>
    <rect fill="rgb(61,67,75)" height="1" width="1" x="16" y="22" id="rect12337"/>
    <rect fill="rgb(61,67,74)" height="1" width="1" x="17" y="22" id="rect12339"/>
    <rect fill="rgb(61,66,75)" height="1" width="1" x="18" y="22" id="rect12341"/>
    <rect fill="rgb(62,67,75)" height="1" width="1" x="19" y="22" id="rect12343"/>
    <rect fill="rgb(60,67,75)" height="1" width="1" x="20" y="22" id="rect12345"/>
    <rect fill="rgb(55,63,69)" height="1" width="1" x="21" y="22" id="rect12347"/>
    <rect fill="rgb(75,82,87)" height="1" width="1" x="11" y="23" id="rect12391"/>
    <rect fill="rgb(76,83,89)" height="1" width="1" x="12" y="23" id="rect12393"/>
    <rect fill="rgb(58,65,72)" height="1" width="1" x="13" y="23" id="rect12395"/>
    <rect fill="rgb(61,67,74)" height="1" width="1" x="14" y="23" id="rect12397"/>
    <rect fill="rgb(61,69,75)" height="1" width="1" x="15" y="23" id="rect12399"/>
    <rect fill="rgb(60,68,74)" height="1" width="1" x="16" y="23" id="rect12401"/>
    <rect fill="rgb(61,67,74)" height="1" width="1" x="17" y="23" id="rect12403"/>
    <rect fill="rgb(62,70,76)" height="1" width="1" x="18" y="23" id="rect12405"/>
    <rect fill="rgb(62,67,74)" height="1" width="1" x="19" y="23" id="rect12407"/>
    <rect fill="rgb(60,65,73)" height="1" width="1" x="20" y="23" id="rect12409"/>
    <rect fill="rgb(74,80,86)" height="1" width="1" x="11" y="24" id="rect12455"/>
    <rect fill="rgb(78,84,90)" height="1" width="1" x="12" y="24" id="rect12457"/>
    <rect fill="rgb(62,67,75)" height="1" width="1" x="13" y="24" id="rect12459"/>
    <rect fill="rgb(59,67,73)" height="1" width="1" x="14" y="24" id="rect12461"/>
    <rect fill="rgb(60,66,74)" height="1" width="1" x="15" y="24" id="rect12463"/>
    <rect fill="rgb(61,67,74)" height="1" width="1" x="16" y="24" id="rect12465"/>
    <rect fill="rgb(62,66,73)" height="1" width="1" x="17" y="24" id="rect12467"/>
    <rect fill="rgb(61,67,73)" height="1" width="1" x="18" y="24" id="rect12469"/>
    <rect fill="rgb(60,66,73)" height="1" width="1" x="19" y="24" id="rect12471"/>
    <rect fill="rgb(61,67,74)" height="1" width="1" x="20" y="24" id="rect12473"/>
    <rect fill="rgb(58,66,73)" height="1" width="1" x="11" y="25" id="rect12519"/>
    <rect fill="rgb(58,65,72)" height="1" width="1" x="12" y="25" id="rect12521"/>
    <rect fill="rgb(50,55,61)" height="1" width="1" x="13" y="25" id="rect12523"/>
    <rect fill="rgb(47,52,60)" height="1" width="1" x="14" y="25" id="rect12525"/>
    <rect fill="rgb(48,54,62)" height="1" width="1" x="15" y="25" id="rect12527"/>
    <rect fill="rgb(48,54,62)" height="1" width="1" x="16" y="25" id="rect12529"/>
    <rect fill="rgb(49,55,62)" height="1" width="1" x="17" y="25" id="rect12531"/>
    <rect fill="rgb(50,55,62)" height="1" width="1" x="18" y="25" id="rect12533"/>
    <rect fill="rgb(48,54,61)" height="1" width="1" x="19" y="25" id="rect12535"/>
    <rect fill="rgb(46,53,58)" height="1" width="1" x="20" y="25" id="rect12537"/>
    <rect fill="rgb(58,66,74)" height="1" width="1" x="11" y="26" id="rect12583"/>
    <rect fill="rgb(58,65,71)" height="1" width="1" x="12" y="26" id="rect12585"/>
    <rect fill="rgb(47,53,59)" height="1" width="1" x="13" y="26" id="rect12587"/>
    <rect fill="rgb(49,54,59)" height="1" width="1" x="14" y="26" id="rect12589"/>
    <rect fill="rgb(48,54,60)" height="1" width="1" x="15" y="26" id="rect12591"/>
    <rect fill="rgb(47,53,61)" height="1" width="1" x="16" y="26" id="rect12593"/>
    <rect fill="rgb(49,55,63)" height="1" width="1" x="17" y="26" id="rect12595"/>
    <rect fill="rgb(48,55,62)" height="1" width="1" x="18" y="26" id="rect12597"/>
    <rect fill="rgb(46,52,60)" height="1" width="1" x="19" y="26" id="rect12599"/>
    <rect fill="rgb(50,56,62)" height="1" width="1" x="20" y="26" id="rect12601"/>
    <rect fill="rgb(68,74,82)" height="1" width="1" x="12" y="27" id="rect12649"/>
    <rect fill="rgb(53,59,67)" height="1" width="1" x="13" y="27" id="rect12651"/>
    <rect fill="rgb(55,62,68)" height="1" width="1" x="14" y="27" id="rect12653"/>
    <rect fill="rgb(55,62,71)" height="1" width="1" x="15" y="27" id="rect12655"/>
    <rect fill="rgb(54,59,69)" height="1" width="1" x="16" y="27" id="rect12657"/>
    <rect fill="rgb(54,62,69)" height="1" width="1" x="17" y="27" id="rect12659"/>
    <rect fill="rgb(53,60,68)" height="1" width="1" x="18" y="27" id="rect12661"/>
    <rect fill="rgb(57,63,71)" height="1" width="1" x="19" y="27" id="rect12663"/>
    <rect fill="rgb(52,59,66)" height="1" width="1" x="12" y="28" id="rect12713"/>
    <rect fill="rgb(52,56,65)" height="1" width="1" x="13" y="28" id="rect12715"/>
    <rect fill="rgb(52,59,65)" height="1" width="1" x="14" y="28" id="rect12717"/>
    <rect fill="rgb(51,57,65)" height="1" width="1" x="15" y="28" id="rect12719"/>
    <rect fill="rgb(48,55,62)" height="1" width="1" x="16" y="28" id="rect12721"/>
    <rect fill="rgb(51,59,64)" height="1" width="1" x="17" y="28" id="rect12723"/>
    <rect fill="rgb(51,56,64)" height="1" width="1" x="18" y="28" id="rect12725"/>
    <rect fill="rgb(48,55,63)" height="1" width="1" x="19" y="28" id="rect12727"/>
    <rect x="16" y="10" width="1" height="1" fill="black"/>
    <rect x="17" y="10" width="1" height="1" fill="black"/>
    <rect x="18" y="11" width="1" height="1" fill="black"/>
    <rect x="19" y="11" width="1" height="1" fill="black"/>
</svg>
